<!-- Generated by IcoMoon.io -->
<svg version="1.1" xmlns="http://www.w3.org/2000/svg" width="768" height="768" viewBox="0 0 768 768">
<title></title>
<g id="icomoon-ignore">
</g>
<path fill="#fff" d="M613.248 625.504c-52.512-80-117.408-105.12-197.248-111.488v45.984c0 17.088-6.656 33.152-18.752 45.248-24.192 24.192-66.464 24.032-90.336 0.16l-201.376-198.624c-6.112-6.048-9.536-14.208-9.536-22.816s3.424-16.768 9.536-22.784l201.216-198.496c24.128-24.16 66.336-24.192 90.528 0.032 12.064 12.096 18.72 28.16 18.72 45.248v54.528c147.808 29.856 256 159.904 256 313.472v32c0 14.144-9.28 26.624-22.848 30.656-3.040 0.864-6.080 1.344-9.152 1.344-10.592 0-20.672-5.28-26.752-14.464zM384.736 448.352c70.624 1.792 148.416 12.608 216.256 67.872-24.576-102.912-111.264-182.464-220.576-194.56-16.128-1.792-28.416-1.664-28.416-1.664v-111.904l-178.432 175.872 178.432 176v-111.968c0 0 23.616 0.32 32.736 0.352z"></path>
</svg>
