<!-- Generated by IcoMoon.io -->
<svg version="1.1" xmlns="http://www.w3.org/2000/svg" width="1024" height="1024" viewBox="0 0 1024 1024">
<title></title>
<g id="icomoon-ignore">
</g>
<path d="M955.435 256c-7.125-12.373-16.981-23.168-27.819-29.44l-376.149-217.173c-21.675-12.501-57.131-12.501-78.805 0l-376.235 217.173c-21.675 12.501-39.381 43.221-39.381 68.267v434.347c0 12.544 4.437 26.453 11.563 38.827s16.981 23.168 27.819 29.397l376.149 217.216c21.675 12.501 57.131 12.501 78.805 0l376.149-217.216c10.837-6.229 20.693-17.024 27.819-29.397s11.563-26.283 11.563-38.827v-434.347c0.085-12.544-4.352-26.453-11.477-38.827zM512 815.317c-167.253 0-303.317-136.064-303.317-303.317s136.064-303.317 303.317-303.317c111.591 0.209 209.066 60.444 261.88 150.128l0.776 1.424-131.243 75.989c-26.783-45.626-75.563-75.799-131.398-75.904h-0.015c-83.627 0-151.637 68.053-151.637 151.68s68.011 151.68 151.637 151.68c55.835-0.124 104.602-30.271 131.025-75.149l0.388-0.713 131.285 75.947c-53.609 91.108-151.096 151.34-262.668 151.552h-0.031zM815.317 528.853h-33.707v33.707h-33.707v-33.707h-33.707v-33.707h33.707v-33.707h33.707v33.707h33.707zM941.696 528.853h-33.707v33.707h-33.707v-33.707h-33.664v-33.707h33.664v-33.707h33.707v33.707h33.707z"></path>
</svg>
