<!-- Generated by IcoMoon.io -->
<svg version="1.1" xmlns="http://www.w3.org/2000/svg" width="1024" height="1024" viewBox="0 0 1024 1024">
<title></title>
<g id="icomoon-ignore">
</g>
<path class="icon-color" fill="#fff" d="M512 0c-282.581 0-512 229.419-512 512s229.419 512 512 512 512-229.419 512-512-229.419-512-512-512zM512 32c122.496 0 233.899 46.165 318.677 121.6h-637.397c84.12-75.46 195.888-121.6 318.433-121.6 0.101 0 0.202 0 0.303 0h-0.016zM205.397 185.6h613.205l-306.603 613.248zM153.6 193.28v637.44c-75.46-84.12-121.6-195.888-121.6-318.433 0-0.101 0-0.202 0-0.303v0.016c0-122.453 46.165-233.856 121.6-318.72zM870.4 193.28c75.46 84.12 121.6 195.888 121.6 318.433 0 0.101 0 0.202 0 0.303v-0.016c0 122.496-46.165 233.899-121.6 318.677zM185.6 217.6l310.4 620.8h-310.4zM838.4 217.6v620.8h-310.4zM193.408 870.4h637.269c-84.12 75.46-195.888 121.6-318.433 121.6-0.086 0-0.172 0-0.259 0h0.014c-0.047 0-0.103 0-0.159 0-122.545 0-234.313-46.14-318.88-121.994l0.447 0.394z"></path>
</svg>
