<!-- Generated by IcoMoon.io -->
<svg version="1.1" xmlns="http://www.w3.org/2000/svg" width="1024" height="1024" viewBox="0 0 1024 1024">
<title></title>
<g id="icomoon-ignore">
</g>
<path class="icon-color" fill="#fff" d="M882.347 135.253c-56.933-81.882-150.547-134.809-256.522-134.809-59.741 0-115.554 16.819-162.961 45.981l1.35-0.773-238.933 151.893c-64.048 40.577-109.429 105.695-123.062 181.822l-0.244 1.645c-2.975 15.436-4.676 33.189-4.676 51.339 0 48.826 12.314 94.775 34.007 134.912l-0.744-1.505c-19.709 29.143-33.931 63.655-40.313 100.846l-0.221 1.554c-2.862 15.348-4.499 33.006-4.499 51.047 0 63.421 20.23 122.117 54.589 169.987l-0.597-0.874c57.193 81.996 151.063 134.973 257.307 134.973 59.391 0 114.916-16.555 162.211-45.302l-1.385 0.782 238.933-151.893c63.878-40.654 109.105-105.758 122.638-181.827l0.242-1.64c2.938-15.34 4.618-32.985 4.618-51.022 0-48.782-12.292-94.693-33.949-134.805l0.744 1.507c28.431-44.039 45.328-97.843 45.328-155.593 0-63.117-20.184-121.52-54.45-169.106l0.589 0.859zM440.32 901.547c-14.273 3.863-30.66 6.083-47.565 6.083-64.223 0-120.965-32.030-155.122-80.988l-0.406-0.615c-27.733-38.4-37.973-85.76-29.867-132.693l4.693-22.613 4.267-14.080 12.8 8.533c28.16 21.333 59.733 36.693 93.44 46.933l8.533 2.987-0.853 8.533c-0.853 11.947 2.56 25.173 9.387 35.413 14.080 20.053 38.4 29.867 61.867 23.467 5.12-1.707 10.24-3.413 14.507-5.973l238.080-151.893c11.947-7.68 19.627-19.2 22.613-32.853 2.56-14.080-0.853-28.587-8.533-40.107-14.080-19.627-38.4-28.587-61.867-22.613-5.12 1.707-10.667 3.84-14.933 6.4l-90.027 57.173c-27.591 16.657-60.913 26.512-96.536 26.512-64.019 0-120.603-31.827-154.795-80.521l-0.402-0.604c-20.399-28.244-32.627-63.563-32.627-101.738 0-10.941 1.004-21.648 2.926-32.033l-0.166 1.078c8.647-47.159 36.427-86.555 74.828-110.53l0.692-0.403 237.653-151.893c14.933-9.387 31.147-16.213 48.64-21.333 76.8-20.053 157.867 10.24 203.093 75.093 20.387 28.331 32.604 63.728 32.604 101.979 0 19.050-3.030 37.392-8.635 54.571l0.351-1.243-4.267 14.080-12.373-8.533c-26.856-19.789-58.034-35.782-91.624-46.326l-2.242-0.607-8.533-2.56 0.853-8.533c0.853-12.373-2.56-25.6-9.387-35.84-14.080-20.053-38.4-28.587-61.867-22.613-5.12 1.707-10.24 3.413-14.507 5.973l-238.507 153.173c-11.947 8.107-19.627 19.2-22.187 33.28-2.56 13.653 0.853 28.587 8.533 39.68 13.653 20.053 38.4 28.587 61.44 22.613 5.547-1.707 10.667-3.413 14.933-5.973l90.88-58.027c14.933-9.813 31.573-17.067 48.64-21.76 77.227-20.053 157.867 10.24 203.093 75.52 27.733 38.4 38.4 85.76 30.72 132.267-8.441 47.032-35.913 86.401-73.995 110.536l-0.672 0.398-238.080 151.467c-14.231 8.761-30.647 16.169-48.013 21.379l-1.48 0.381z"></path>
</svg>
